<?xml version="1.0" standalone="no"?>
<!DOCTYPE svg PUBLIC "-//W3C//DTD SVG 20010904//EN"
 "http://www.w3.org/TR/2001/REC-SVG-20010904/DTD/svg10.dtd">
<svg version="1.0" xmlns="http://www.w3.org/2000/svg"
 width="500.000000pt" height="111.000000pt" viewBox="0 0 500.000000 111.000000"
 preserveAspectRatio="xMidYMid meet">

<g transform="translate(0.000000,111.000000) scale(0.100000,-0.100000)"
fill="#000000" stroke="none">
<path d="M750 550 l0 -480 1750 0 1750 0 0 480 0 480 -1750 0 -1750 0 0 -480z
m3470 0 l0 -450 -1720 0 -1720 0 0 450 0 450 1720 0 1720 0 0 -450z"/>
<path d="M850 550 l0 -390 825 0 825 0 0 390 0 390 -825 0 -825 0 0 -390z
m400 75 l0 -55 70 0 70 0 0 55 c0 42 3 55 15 55 13 0 15 -21 15 -130 0 -107
-3 -130 -15 -130 -10 0 -15 15 -17 58 l-3 57 -65 0 -65 0 -3 -57 c-2 -43 -7
-58 -17 -58 -12 0 -15 23 -15 130 0 109 2 130 15 130 12 0 15 -13 15 -55z
m407 -26 c70 -163 75 -179 55 -179 -10 0 -22 12 -29 30 -11 29 -14 30 -72 30
-57 0 -61 -2 -76 -30 -9 -16 -22 -30 -30 -30 -8 0 -15 2 -15 4 0 5 88 214 100
236 18 33 32 20 67 -61z m183 -49 c0 -109 -2 -130 -15 -130 -13 0 -15 21 -15
130 0 109 2 130 15 130 13 0 15 -21 15 -130z m272 102 c33 -32 30 -88 -6 -118
l-27 -24 31 -45 c28 -41 29 -45 11 -45 -12 0 -32 17 -51 45 -25 36 -37 45 -60
45 -29 0 -30 -2 -30 -45 0 -33 -4 -45 -15 -45 -13 0 -15 21 -15 131 l0 131 70
-4 c55 -3 75 -8 92 -26z"/>
<path d="M1600 615 c0 -2 -9 -27 -20 -55 l-20 -50 49 0 49 0 -21 55 c-12 30
-25 55 -29 55 -5 0 -8 -2 -8 -5z"/>
<path d="M1987 643 c-4 -3 -7 -28 -7 -55 l0 -48 34 0 c59 0 86 15 86 49 0 20
-8 35 -22 45 -23 16 -79 22 -91 9z"/>
<path d="M2844 680 c-26 -10 -54 -48 -54 -71 0 -29 33 -59 85 -77 29 -10 50
-24 50 -32 0 -21 -39 -24 -55 -5 -14 17 -80 21 -80 4 0 -39 56 -79 110 -79 71
0 114 50 94 109 -7 19 -24 32 -64 48 -59 23 -80 53 -37 53 14 0 27 -7 31 -15
6 -15 61 -21 69 -7 10 15 -13 52 -42 66 -33 17 -74 20 -107 6z"/>
<path d="M3030 650 c0 -25 4 -30 24 -30 53 0 56 -5 56 -106 0 -91 1 -94 23
-94 41 0 46 12 49 105 l3 90 38 3 c34 3 37 6 37 33 l0 29 -115 0 -115 0 0 -30z"/>
<path d="M3280 674 c0 -3 20 -42 45 -86 34 -60 45 -91 45 -123 0 -40 2 -42 28
-40 15 1 30 3 35 3 4 1 7 20 7 43 0 30 12 62 45 121 25 44 45 82 45 84 0 2
-18 4 -40 4 -36 0 -41 -3 -60 -40 -11 -22 -22 -40 -25 -40 -3 0 -14 18 -25 40
-19 37 -24 40 -60 40 -22 0 -40 -3 -40 -6z"/>
<path d="M3570 550 l0 -129 73 1 c98 2 107 5 107 39 0 27 -2 28 -52 31 l-53 3
-3 93 -3 92 -34 0 -35 0 0 -130z"/>
<path d="M3782 553 l3 -128 55 -2 c30 -1 72 0 93 3 34 5 38 9 35 32 -3 25 -7
27 -55 30 -45 3 -53 6 -53 23 0 16 7 19 45 19 43 0 45 1 45 30 0 29 -2 30 -45
30 -33 0 -45 4 -45 15 0 11 12 15 50 15 49 0 50 1 50 30 l0 30 -90 0 -91 0 3
-127z"/>
</g>
</svg>
