<svg xmlns="http://www.w3.org/2000/svg" xmlns:xlink="http://www.w3.org/1999/xlink" width="1366" zoomAndPan="magnify" viewBox="0 0 1024.5 224.249992" height="768" preserveAspectRatio="xMidYMid meet" version="1.0"><defs><g/><clipPath id="f4dcf5c016"><path d="M 184.375 22.082031 L 833.503906 22.082031 L 833.503906 200.824219 L 184.375 200.824219 Z M 184.375 22.082031 " clip-rule="nonzero"/></clipPath><clipPath id="6b2025e0aa"><path d="M 201.898438 38.878906 L 508.875 38.878906 L 508.875 184.03125 L 201.898438 184.03125 Z M 201.898438 38.878906 " clip-rule="nonzero"/></clipPath></defs><g clip-path="url(#f4dcf5c016)"><path stroke-linecap="butt" transform="matrix(0.748013, 0, 0, 0.747865, 184.374537, 22.083048)" fill="none" stroke-linejoin="miter" d="M 0.000618337 -0.0013595 L 867.805151 -0.0013595 L 867.805151 239.002017 L 0.000618337 239.002017 Z M 0.000618337 -0.0013595 " stroke="#000000" stroke-width="16" stroke-opacity="1" stroke-miterlimit="4"/></g><g clip-path="url(#6b2025e0aa)"><path fill="#000000" d="M 201.898438 38.878906 L 508.875 38.878906 L 508.875 184.03125 L 201.898438 184.03125 Z M 201.898438 38.878906 " fill-opacity="1" fill-rule="nonzero"/></g><g fill="#ffffff" fill-opacity="1"><g transform="translate(235.73223, 134.0704)"><g><path d="M 7.105469 0 L 36.921875 0 L 36.921875 -5.851562 L 13.234375 -5.851562 L 13.234375 -48.761719 L 7.105469 -48.761719 Z M 7.105469 0 "/></g></g></g><g fill="#ffffff" fill-opacity="1"><g transform="translate(280.093516, 134.0704)"><g><path d="M 7.105469 0 L 37.476562 0 L 37.476562 -5.710938 L 13.234375 -5.710938 L 13.234375 -22.011719 L 34.96875 -22.011719 L 34.96875 -27.65625 L 13.234375 -27.65625 L 13.234375 -43.050781 L 36.710938 -43.050781 L 36.710938 -48.761719 L 7.105469 -48.761719 Z M 7.105469 0 "/></g></g></g><g fill="#ffffff" fill-opacity="1"><g transform="translate(327.379581, 134.0704)"><g><path d="M 7.105469 0 L 13.234375 0 L 13.234375 -37.339844 L 29.398438 -12.957031 L 34.414062 -12.957031 L 50.574219 -37.269531 L 50.574219 0 L 56.703125 0 L 56.703125 -48.761719 L 50.992188 -48.761719 L 31.972656 -19.851562 L 12.816406 -48.761719 L 7.105469 -48.761719 Z M 7.105469 0 "/></g></g></g><g fill="#ffffff" fill-opacity="1"><g transform="translate(396.462188, 134.0704)"><g><path d="M 7.105469 0 L 13.234375 0 L 13.234375 -48.761719 L 7.105469 -48.761719 Z M 7.105469 0 "/></g></g></g><g fill="#ffffff" fill-opacity="1"><g transform="translate(422.090955, 134.0704)"><g><path d="M 7.105469 0 L 13.164062 0 L 13.164062 -38.175781 L 40.125 0 L 45.835938 0 L 45.835938 -48.761719 L 39.847656 -48.761719 L 39.847656 -10.589844 L 12.886719 -48.761719 L 7.105469 -48.761719 Z M 7.105469 0 "/></g></g></g><g fill="#000000" fill-opacity="1"><g transform="translate(575.698273, 134.445537)"><g><path d="M 22.640625 1.042969 C 34.757812 1.042969 41.933594 -4.667969 41.933594 -14.28125 C 41.933594 -22.359375 36.710938 -27.097656 24.867188 -29.746094 C 18.597656 -31.136719 16.300781 -32.671875 16.300781 -35.175781 C 16.300781 -37.546875 18.390625 -39.007812 21.664062 -39.007812 C 25.566406 -39.007812 27.792969 -36.988281 27.792969 -33.296875 L 41.027344 -33.296875 C 41.027344 -43.328125 33.367188 -49.804688 21.386719 -49.804688 C 9.890625 -49.804688 2.785156 -44.09375 2.785156 -34.898438 C 2.785156 -26.679688 8.148438 -21.59375 19.15625 -19.503906 C 25.078125 -18.320312 27.933594 -16.507812 27.933594 -13.722656 C 27.933594 -11.285156 25.84375 -9.890625 22.429688 -9.890625 C 18.390625 -9.890625 16.023438 -12.050781 16.023438 -15.8125 L 2.4375 -15.8125 C 2.4375 -5.292969 9.960938 1.042969 22.640625 1.042969 Z M 22.640625 1.042969 "/></g></g></g><g fill="#000000" fill-opacity="1"><g transform="translate(620.20768, 134.445537)"><g><path d="M 34.273438 0 L 48.34375 0 L 48.34375 -48.761719 L 34.273438 -48.761719 L 34.273438 -31.277344 L 19.226562 -31.277344 L 19.226562 -48.761719 L 5.15625 -48.761719 L 5.15625 0 L 19.226562 0 L 19.226562 -18.320312 L 34.273438 -18.320312 Z M 34.273438 0 "/></g></g></g><g fill="#000000" fill-opacity="1"><g transform="translate(673.702545, 134.445537)"><g><path d="M 28.910156 1.042969 C 44.441406 1.042969 55.449219 -9.472656 55.449219 -24.378906 C 55.449219 -39.289062 44.441406 -49.804688 28.910156 -49.804688 C 13.375 -49.804688 2.367188 -39.289062 2.367188 -24.378906 C 2.367188 -9.472656 13.375 1.042969 28.910156 1.042969 Z M 16.648438 -24.378906 C 16.648438 -31.695312 21.734375 -36.78125 28.910156 -36.78125 C 36.152344 -36.78125 41.167969 -31.695312 41.167969 -24.378906 C 41.167969 -17.066406 36.152344 -11.980469 28.910156 -11.980469 C 21.734375 -11.980469 16.648438 -17.066406 16.648438 -24.378906 Z M 16.648438 -24.378906 "/></g></g></g><g fill="#000000" fill-opacity="1"><g transform="translate(731.585669, 134.445537)"><g><path d="M 5.15625 0 L 19.226562 0 L 19.226562 -12.050781 L 25.703125 -12.050781 C 38.101562 -12.050781 45.976562 -19.226562 45.976562 -30.441406 C 45.976562 -41.65625 38.101562 -48.761719 25.703125 -48.761719 L 5.15625 -48.761719 Z M 19.085938 -23.824219 L 19.085938 -36.917969 L 24.378906 -36.917969 C 29.046875 -36.917969 31.765625 -34.410156 31.765625 -30.371094 C 31.765625 -26.261719 29.046875 -23.824219 24.378906 -23.824219 Z M 19.085938 -23.824219 "/></g></g></g></svg>